<mxfile host="app.diagrams.net" modified="2023-03-16T14:05:07.394Z" agent="5.0 (Windows)" etag="vXWoiARqHw53ZpvrAfhV" version="20.8.20" type="github">
  <diagram id="prtHgNgQTEPvFCAcTncT" name="Page-1">
    <mxGraphModel dx="2290" dy="338" grid="1" gridSize="10" guides="1" tooltips="1" connect="1" arrows="1" fold="1" page="1" pageScale="1" pageWidth="827" pageHeight="1169" math="0" shadow="0">
      <root>
        <mxCell id="0" />
        <mxCell id="1" parent="0" />
        <mxCell id="4Yo-Khz0slOa4_lwaTra-1" value="&lt;div&gt;Design&lt;/div&gt;&lt;div&gt;(multi-fasta)&lt;br&gt;&lt;/div&gt;" style="shape=parallelogram;perimeter=parallelogramPerimeter;whiteSpace=wrap;html=1;fixedSize=1;" vertex="1" parent="1">
          <mxGeometry x="-1620" y="50" width="120" height="60" as="geometry" />
        </mxCell>
        <mxCell id="4Yo-Khz0slOa4_lwaTra-2" value="&lt;div&gt;FW&lt;/div&gt;(fastq)" style="shape=parallelogram;perimeter=parallelogramPerimeter;whiteSpace=wrap;html=1;fixedSize=1;" vertex="1" parent="1">
          <mxGeometry x="-1460" y="50" width="120" height="60" as="geometry" />
        </mxCell>
        <mxCell id="4Yo-Khz0slOa4_lwaTra-3" value="REV&lt;br&gt;(fastq)" style="shape=parallelogram;perimeter=parallelogramPerimeter;whiteSpace=wrap;html=1;fixedSize=1;" vertex="1" parent="1">
          <mxGeometry x="-1310" y="50" width="120" height="60" as="geometry" />
        </mxCell>
        <mxCell id="4Yo-Khz0slOa4_lwaTra-4" value="BC&lt;br&gt;(fastq)" style="shape=parallelogram;perimeter=parallelogramPerimeter;whiteSpace=wrap;html=1;fixedSize=1;" vertex="1" parent="1">
          <mxGeometry x="-1150" y="50" width="120" height="60" as="geometry" />
        </mxCell>
      </root>
    </mxGraphModel>
  </diagram>
</mxfile>
